<svg version="1.1" id="Layer_1" xmlns="http://www.w3.org/2000/svg" xmlns:xlink="http://www.w3.org/1999/xlink" x="0px" y="0px"
	 width="100%" viewBox="0 0 496 656" enable-background="new 0 0 496 656" xml:space="preserve">
<path fill="#000000" opacity="1.000000" stroke="none" 
	d="
M62.981152,584.523193 
	C60.068466,583.393738 62.176735,582.065186 62.822105,581.185669 
	C74.745811,564.936584 86.747490,548.744568 98.750961,532.554138 
	C99.631592,531.366333 100.532661,529.560425 102.093918,529.840454 
	C107.961601,530.892639 110.417831,526.879089 113.747948,523.251648 
	C119.763786,516.698853 127.214104,511.548553 133.628281,505.457397 
	C158.142838,482.177490 182.019608,458.226898 206.199493,434.593231 
	C216.012283,425.002136 214.819305,428.627777 209.179550,416.597046 
	C207.202072,412.378662 205.202820,408.162048 203.459335,403.845337 
	C202.361374,401.126862 200.764755,399.783691 197.773834,399.064636 
	C158.697876,389.670319 130.545456,357.579529 125.600266,317.675262 
	C120.158836,273.766541 148.144028,226.669769 197.529419,214.639877 
	C202.877029,213.337234 208.288452,212.528748 212.883041,211.844574 
	C213.850891,204.502060 209.148392,198.724609 207.966644,191.952423 
	C207.056442,186.736343 208.992493,182.226700 213.163681,179.203461 
	C218.497864,175.337250 223.708969,171.406616 230.081253,168.883514 
	C236.188873,166.465210 241.217331,161.645599 245.784378,156.752151 
	C247.112000,155.329651 247.758484,153.325317 247.297073,151.187820 
	C245.311890,149.999176 243.616974,153.048126 241.397858,151.270935 
	C241.330627,147.419144 245.798996,145.379990 246.040665,141.113861 
	C244.835754,141.891769 243.907059,142.517395 242.953644,143.102783 
	C235.265091,147.823639 234.234650,147.524170 229.947006,140.104065 
	C228.577194,137.733505 227.558456,135.086838 224.527725,133.867706 
	C222.274612,132.961380 222.847961,130.579803 223.186462,128.558090 
	C223.729065,125.317566 225.015656,122.159782 224.568665,118.766228 
	C219.903290,118.954758 218.095474,117.055626 217.764999,111.376816 
	C217.436966,105.739960 218.131821,100.041924 216.728073,94.470108 
	C215.996811,91.567581 215.396606,88.621651 214.475204,85.780289 
	C213.529373,82.863579 214.550720,81.420914 217.420013,81.794151 
	C221.601883,82.338120 224.157562,80.331749 226.684418,77.354607 
	C235.282227,67.224731 246.795212,63.623508 259.443390,65.148453 
	C274.569397,66.972137 286.363159,81.055275 287.158661,96.751846 
	C287.343658,100.401848 287.109680,104.075790 287.005096,107.736900 
	C286.922577,110.626579 286.881226,113.712662 289.141663,115.695351 
	C292.626617,118.752106 293.189117,121.835129 290.145233,125.525246 
	C293.389587,128.919189 298.211090,130.329239 299.831604,134.929001 
	C300.279144,136.199280 300.728790,137.456039 299.906372,138.825790 
	C297.890961,139.551956 297.075165,136.598282 294.695526,137.300690 
	C300.088409,143.946167 298.096436,153.061600 302.920227,159.501648 
	C302.344177,161.236206 300.849670,160.125702 300.167114,161.151276 
	C300.266113,161.523148 300.274780,162.057755 300.526215,162.427078 
	C307.772736,173.071060 311.291138,184.830231 311.337921,197.697937 
	C311.355194,202.436966 313.079376,206.882980 314.792694,211.175827 
	C320.195587,224.713165 320.870117,239.042221 322.267212,253.251572 
	C323.421967,264.996185 324.665131,276.730164 325.569916,288.505157 
	C326.099579,295.398224 331.515472,300.608124 334.037964,307.224731 
	C337.761230,305.802917 339.877808,303.213806 342.182220,300.949982 
	C372.372864,271.290955 402.524384,241.592072 432.704010,211.921799 
	C446.366669,198.489777 460.069550,185.098648 473.755859,171.690659 
	C474.231628,171.224548 474.720825,170.771866 475.211273,170.321075 
	C477.358551,168.347412 479.625397,167.921280 481.820404,170.128143 
	C484.149078,172.469421 483.179962,174.640976 481.183014,176.629089 
	C472.799835,184.975204 464.443420,193.348465 456.021271,201.655121 
	C427.197418,230.083771 398.360107,258.498779 369.506042,286.896759 
	C359.532135,296.713043 349.479889,306.449768 339.497864,316.257874 
	C337.582977,318.139374 335.392120,319.525452 336.872620,323.304535 
	C337.978851,326.128296 335.324127,329.760742 333.743225,331.810883 
	C330.696686,335.761688 327.238312,339.654785 321.807800,341.556335 
	C314.567963,344.091400 306.141907,345.275024 302.336090,353.779633 
	C301.162018,356.403290 300.653137,358.584961 301.720734,361.315735 
	C305.233490,370.300842 307.973541,379.608276 313.088440,387.909515 
	C313.522736,388.614349 313.875580,389.389984 313.211060,390.504547 
	C310.621002,391.420959 307.835358,390.338928 305.143707,390.097046 
	C301.288727,389.750641 300.035187,391.190643 300.172302,394.795319 
	C300.253296,396.924438 299.917694,399.069366 299.775513,401.119324 
	C295.624481,402.754547 294.271088,398.222534 290.798309,397.777771 
	C290.690552,401.665558 291.252502,405.327423 291.996735,408.972107 
	C292.292267,410.419373 293.153046,411.884644 292.311859,413.330566 
	C289.253571,418.587494 287.166748,424.108032 287.362885,430.833313 
	C279.162689,425.719330 272.652496,419.780792 270.218964,410.086731 
	C270.406799,411.762054 270.209595,413.604034 270.850037,415.083405 
	C273.433289,421.050537 271.732056,426.103760 267.951904,430.807281 
	C264.473267,435.135681 264.196838,440.133575 265.718170,445.031036 
	C272.392578,466.517273 272.596466,488.321899 268.855560,510.219879 
	C267.949646,515.522705 269.545532,520.376709 269.386414,525.444763 
	C268.978943,538.422729 267.562103,551.374512 268.362640,564.382751 
	C268.670746,569.388977 268.941742,574.425110 273.257812,578.015442 
	C274.414795,578.977844 274.274933,580.410278 274.369629,581.724304 
	C275.121094,592.152527 273.031708,602.254456 270.815826,612.338135 
	C270.369415,614.369507 269.101135,615.934082 267.629730,617.317871 
	C263.257294,621.429749 258.962158,625.610901 255.215561,630.320801 
	C253.026840,633.072327 250.135223,634.762756 246.653549,634.867859 
	C240.276443,635.060364 233.655548,636.986206 227.786041,632.652161 
	C221.634216,628.109619 221.165482,625.117920 225.742401,619.130371 
	C235.944565,605.783691 243.849701,591.465332 243.554657,574.044800 
	C243.328094,560.668396 239.764420,547.771790 237.550369,534.666626 
	C234.099396,514.239929 228.811569,494.018982 228.725922,473.098541 
	C228.712311,469.772339 228.909302,466.473236 229.430481,463.152344 
	C230.021759,459.384918 230.135117,455.504456 228.510223,451.844208 
	C225.958023,446.095032 221.937927,441.056671 221.014679,434.903015 
	C218.287033,434.623383 217.383194,436.254761 216.254639,437.360687 
	C190.431992,462.664215 164.350220,487.715485 139.077362,513.557617 
	C133.981461,518.768311 129.702164,525.132996 124.065865,529.868225 
	C117.820015,535.115540 114.040154,540.701843 115.818390,549.167236 
	C116.308258,551.499329 114.031319,552.550781 112.357651,553.602783 
	C98.115227,562.554932 83.854301,571.477661 69.601593,580.413452 
	C67.488472,581.738281 65.389221,583.085205 62.981152,584.523193 
M211.137894,302.556946 
	C206.937851,311.881317 203.085312,321.365601 197.722305,330.148895 
	C201.677658,332.431549 203.320267,331.020813 204.541870,327.689148 
	C207.462601,319.723541 210.462570,311.777893 213.755554,303.961121 
	C215.843369,299.005127 217.318573,293.698639 220.476791,289.211639 
	C222.910141,290.187256 223.280014,292.128815 223.905121,293.750763 
	C228.213684,304.929993 233.598190,315.667786 237.415741,327.052521 
	C239.169983,332.284058 240.827194,332.751709 246.237000,329.953186 
	C237.772736,312.978668 231.344009,295.024719 222.837570,278.054016 
	C222.206680,278.180664 221.575790,278.307312 220.944901,278.433960 
	C217.764862,286.237762 214.584839,294.041534 211.137894,302.556946 
M291.263062,244.251984 
	C294.235870,247.926514 297.208679,251.601044 300.002991,255.054977 
	C297.242889,242.946686 295.816681,230.230331 289.436584,218.769638 
	C286.863434,214.147415 286.396088,208.456009 287.295929,202.872940 
	C284.646484,211.209213 279.295471,218.226913 276.446472,226.438339 
	C275.580933,228.932922 275.894257,230.350143 278.009430,231.869919 
	C282.752502,235.277908 287.057556,239.204834 291.263062,244.251984 
M182.492798,241.984970 
	C185.726852,241.858292 188.176712,239.730774 190.957947,238.515869 
	C200.793015,234.219772 211.168274,232.550461 221.739014,231.641983 
	C207.780823,231.295502 194.740387,234.537140 182.492798,241.984970 
M173.804596,248.229126 
	C168.692749,250.798599 165.718124,255.516220 162.446609,259.938599 
	C166.182449,256.173157 169.918274,252.407745 173.804596,248.229126 
M248.601959,216.592499 
	C252.062927,217.862198 255.523880,219.131912 258.984863,220.401611 
	C255.168503,218.180130 251.347198,216.012665 245.819046,215.029358 
	C247.251740,215.922760 247.652496,216.172668 248.601959,216.592499 
z"/>
</svg>